Coordinates
version=1
nRows=7
nColumns=40
inDegrees=yes

Units are S.I. units (second, meters, Newtons, ...)
Angles are in degrees.

endheader
time	pelvis_tilt	pelvis_list	pelvis_rotation	pelvis_tx	pelvis_ty	pelvis_tz	hip_flexion_r	hip_adduction_r	hip_rotation_r	knee_angle_r	knee_angle_r_beta	ankle_angle_r	subtalar_angle_r	mtp_angle_r	hip_flexion_l	hip_adduction_l	hip_rotation_l	knee_angle_l	knee_angle_l_beta	ankle_angle_l	subtalar_angle_l	mtp_angle_l	lumbar_extension	lumbar_bending	lumbar_rotation	arm_flex_r	arm_add_r	arm_rot_r	elbow_flex_r	pro_sup_r	wrist_flex_r	wrist_dev_r	arm_flex_l	arm_add_l	arm_rot_l	elbow_flex_l	pro_sup_l	wrist_flex_l	wrist_dev_l
     56.22714286	     -2.94533353	     -4.71403160	      5.84573316	      1.21415803	      0.90794838	      0.55390192	     17.34915275	      6.58830988	     -7.26261298	     31.80129348	     31.80129348	     18.95996103	    -12.73074343	     -0.17414174	     37.29213043	    -12.63277394	      7.62878526	     58.63809519	     58.63809519	     10.35097864	    -19.40662203	     18.47523597	    -12.97172358	      4.34404266	      1.90926891	     31.07531394	    -16.58448799	     -7.69935605	     47.42688965	     45.72587963	      0.00000000	      0.00000000	     -5.90879862	     -7.35151878	      6.63886334	     22.32368159	     44.94711782	      0.00000000	      0.00000000
     56.24928571	     -3.40855094	     -4.60183795	      6.71496703	      1.21194475	      0.90896070	      0.55369223	     17.32689030	      6.31410303	     -7.91320514	     31.10607874	     31.10607874	     18.77085202	    -12.78712531	      0.03189132	     37.81050050	    -12.02594604	      7.50864445	     54.70294025	     54.70294025	     10.51035659	    -19.25873306	     18.69288175	    -12.55237625	      4.15546280	      2.74408476	     34.29522596	    -17.62243277	     -7.93771359	     48.82027619	     45.70547403	      0.00000000	      0.00000000	     -7.58911974	     -7.40717604	      6.73091340	     21.74185150	     44.89664218	      0.00000000	      0.00000000
     56.27142857	     -3.55402822	     -4.36854543	      7.57862273	      1.21003697	      0.91105523	      0.55314882	     16.59605490	      5.84227455	     -8.92804326	     29.86467726	     29.86467726	     18.54624348	    -11.90542886	     -0.28897796	     37.33806156	    -11.40278563	      7.21130810	     49.80982773	     49.80982773	      8.65551912	    -19.10873888	     14.30308873	    -12.68936112	      3.88949860	      2.26451078	     37.41720190	    -17.66804311	     -6.67725739	     53.29971745	     45.50575780	      0.00000000	      0.00000000	    -10.49003675	     -7.89027103	      8.57235132	     23.44467400	     44.43369989	      0.00000000	      0.00000000
     56.29357143	     -3.92054932	     -4.16125125	      8.32089524	      1.20794183	      0.91300694	      0.55236348	     16.11011876	      5.41702562	     -9.77789450	     28.59431505	     28.59431505	     18.09066420	    -11.31578040	     -0.81914478	     36.92353230	    -10.68382003	      7.13593419	     44.85216415	     44.85216415	      6.90651211	    -18.77804119	     11.56381112	    -12.49967301	      3.66632713	      2.63385341	     40.53883152	    -18.25146935	     -6.04596695	     56.29776965	     45.43006152	      0.00000000	      0.00000000	    -12.63826061	     -9.09134909	     16.03268557	     25.04960052	     43.31430409	      0.00000000	      0.00000000
     56.31571429	     -4.29483028	     -3.91463528	      8.95339557	      1.20596725	      0.91507475	      0.55140566	     15.58480749	      4.99420647	    -10.45916632	     27.29605992	     27.29605992	     17.83928562	    -10.66325567	     -0.64007026	     36.42289888	     -9.91258824	      7.22615014	     40.18562035	     40.18562035	      6.08405753	    -17.82048314	     12.00758296	    -12.30976803	      3.36124924	      2.93023159	     43.82777884	    -18.39946234	     -5.99267324	     58.50530914	     45.36871010	      0.00000000	      0.00000000	    -14.10257219	     -9.06723875	     16.09973778	     25.06889682	     43.29092617	      0.00000000	      0.00000000
     56.33785714	     -4.56250552	     -3.76236024	      9.52318410	      1.20416378	      0.91698618	      0.55025178	     14.92176747	      4.63955659	    -11.36207673	     25.98281924	     25.98281924	     17.61744919	     -9.54237851	     -0.68726560	     35.82991504	     -9.38647852	      7.26117033	     35.93221509	     35.93221509	      5.15478712	    -16.17401782	     11.81164497	    -12.24569286	      3.17831827	      2.93081259	     47.05672434	    -18.20806904	     -5.46619663	     61.59861781	     45.25937719	      0.00000000	      0.00000000	    -15.70306270	     -8.98726560	     16.15757371	     25.71997207	     43.26644486	      0.00000000	      0.00000000
     56.36000000	     -4.89369990	     -3.67521319	      9.99500916	      1.20253475	      0.91831919	      0.54895878	     14.41911920	      4.31887158	    -12.31483023	     24.84854299	     24.84854299	     17.35229148	     -8.37961976	     -1.40038392	     35.34106239	     -9.08109323	      7.03082819	     32.14675361	     32.14675361	      3.54787774	    -14.28947943	      9.82892319	    -12.19832158	      3.08770267	      3.27208356	     49.46058119	    -18.93305782	     -3.47764444	     66.65150029	     45.04317132	      0.00000000	      0.00000000	    -17.72374763	     -9.33344035	     16.28188204	     28.87030983	     43.27455232	      0.00000000	      0.00000000
